# Blender v2.80 (sub 54) OBJ File: 'snake_game.blend'
# www.blender.org
v 0.237225 0.011190 0.885336
v 0.458283 0.011190 0.793770
v 0.648110 0.011190 0.648111
v 0.793770 0.011190 0.458284
v 0.885335 0.011190 0.237225
v 0.916567 0.011190 0.000000
v 0.885336 0.011190 -0.237224
v 0.793770 0.011190 -0.458283
v 0.648111 0.011190 -0.648110
v 0.458284 0.011190 -0.793770
v 0.237226 0.011190 -0.885335
v 0.237225 0.552932 0.885336
v 0.458283 0.552932 0.793770
v 0.648110 0.552932 0.648111
v 0.793770 0.552932 0.458284
v 0.885335 0.552932 0.237225
v 0.916567 0.552932 0.000000
v 0.885336 0.552932 -0.237224
v 0.793770 0.552932 -0.458283
v 0.648111 0.552932 -0.648110
v 0.458284 0.552932 -0.793770
v 0.237226 0.552932 -0.885335
v 0.000000 0.011190 0.000000
v 0.000000 0.011190 -0.916567
v 0.000000 0.011190 0.916567
v -0.237225 0.011190 0.885336
v -0.458283 0.011190 0.793770
v -0.648110 0.011190 0.648111
v -0.793770 0.011190 0.458284
v -0.885335 0.011190 0.237225
v -0.916567 0.011190 0.000000
v -0.885336 0.011190 -0.237224
v -0.793770 0.011190 -0.458283
v -0.648111 0.011190 -0.648110
v -0.458284 0.011190 -0.793770
v -0.237226 0.011190 -0.885335
v 0.000000 0.552932 0.000000
v 0.000000 0.552932 -0.916567
v 0.000000 0.552932 0.916567
v -0.237225 0.552932 0.885336
v -0.458283 0.552932 0.793770
v -0.648110 0.552932 0.648111
v -0.793770 0.552932 0.458284
v -0.885335 0.552932 0.237225
v -0.916567 0.552932 0.000000
v -0.885336 0.552932 -0.237224
v -0.793770 0.552932 -0.458283
v -0.648111 0.552932 -0.648110
v -0.458284 0.552932 -0.793770
v -0.237226 0.552932 -0.885335
v 0.237225 0.011190 0.885336
v 0.000000 0.011190 0.916567
v 0.458283 0.011190 0.793770
v 0.648110 0.011190 0.648111
v 0.793770 0.011190 0.458284
v 0.885335 0.011190 0.237225
v 0.916567 0.011190 0.000000
v 0.885336 0.011190 -0.237224
v 0.793770 0.011190 -0.458283
v 0.648111 0.011190 -0.648110
v 0.458284 0.011190 -0.793770
v 0.237226 0.011190 -0.885335
v 0.000000 0.011190 -0.916567
v 0.237225 0.552932 0.885336
v 0.000000 0.552932 0.916567
v 0.458283 0.552932 0.793770
v 0.648110 0.552932 0.648111
v 0.793770 0.552932 0.458284
v 0.885335 0.552932 0.237225
v 0.916567 0.552932 0.000000
v 0.885336 0.552932 -0.237224
v 0.793770 0.552932 -0.458283
v 0.648111 0.552932 -0.648110
v 0.458284 0.552932 -0.793770
v 0.237226 0.552932 -0.885335
v 0.000000 0.552932 -0.916567
v -0.237225 0.011190 0.885336
v -0.458283 0.011190 0.793770
v -0.648110 0.011190 0.648111
v -0.793770 0.011190 0.458284
v -0.885335 0.011190 0.237225
v -0.916567 0.011190 0.000000
v -0.885336 0.011190 -0.237224
v -0.793770 0.011190 -0.458283
v -0.648111 0.011190 -0.648110
v -0.458284 0.011190 -0.793770
v -0.237226 0.011190 -0.885335
v -0.237225 0.552932 0.885336
v -0.458283 0.552932 0.793770
v -0.648110 0.552932 0.648111
v -0.793770 0.552932 0.458284
v -0.885335 0.552932 0.237225
v -0.916567 0.552932 0.000000
v -0.885336 0.552932 -0.237224
v -0.793770 0.552932 -0.458283
v -0.648111 0.552932 -0.648110
v -0.458284 0.552932 -0.793770
v -0.237226 0.552932 -0.885335
vt 0.489656 0.647912
vt 0.583681 0.972751
vt 0.496403 0.986018
vt 0.664552 0.937347
vt 0.733503 0.882218
vt 0.785838 0.811122
vt 0.817987 0.728903
vt 0.827762 0.641165
vt 0.814495 0.553887
vt 0.779091 0.473016
vt 0.723962 0.404064
vt 0.652866 0.351730
vt 0.570647 0.319580
vt 0.482909 0.309806
vt 0.489656 0.647912
vt 0.482908 0.309806
vt 0.570647 0.319580
vt 0.652865 0.351729
vt 0.723962 0.404063
vt 0.779090 0.473015
vt 0.814495 0.553886
vt 0.827762 0.641164
vt 0.817988 0.728902
vt 0.785838 0.811121
vt 0.733504 0.882217
vt 0.664553 0.937346
vt 0.583682 0.972750
vt 0.496403 0.986018
vt 0.082408 0.099927
vt 0.029353 0.404300
vt 0.039753 0.147547
vt 0.504659 0.006230
vt 0.374434 0.293189
vt 0.379363 0.007364
vt 0.631452 0.012501
vt 0.505262 0.292289
vt 0.506195 0.009205
vt 0.971554 0.158575
vt 0.924980 0.388027
vt 0.926766 0.110175
vt 0.160327 0.061383
vt 0.080138 0.367401
vt 0.748583 0.034643
vt 0.631447 0.298369
vt 0.985786 0.181035
vt 0.975823 0.428031
vt 0.261868 0.027482
vt 0.156338 0.336337
vt 0.849523 0.070292
vt 0.748583 0.320526
vt 0.010829 0.434601
vt 0.026617 0.170499
vt 0.256193 0.304436
vt 0.849327 0.355653
vt 0.408665 0.976243
vt 0.326446 0.944094
vt 0.255350 0.891760
vt 0.200221 0.822808
vt 0.164817 0.741937
vt 0.151550 0.654659
vt 0.161324 0.566921
vt 0.193474 0.484702
vt 0.245808 0.413605
vt 0.314760 0.358477
vt 0.395630 0.323073
vt 0.395630 0.323073
vt 0.314760 0.358477
vt 0.245808 0.413605
vt 0.193474 0.484702
vt 0.161324 0.566920
vt 0.151550 0.654659
vt 0.164817 0.741937
vt 0.200221 0.822808
vt 0.255350 0.891760
vt 0.326446 0.944094
vt 0.408665 0.976243
vt 0.974896 0.414749
vt 0.922793 0.110398
vt 0.966199 0.147460
vt 0.624898 0.294216
vt 0.629826 0.013574
vt 0.381009 0.009205
vt 0.075769 0.365025
vt 0.042286 0.142448
vt 0.085789 0.094281
vt 0.928139 0.376831
vt 0.850703 0.068018
vt 0.381004 0.295073
vt 0.264098 0.012793
vt 0.028977 0.409547
vt 0.028391 0.162024
vt 0.844170 0.336609
vt 0.747399 0.032510
vt 0.264098 0.298676
vt 0.161728 0.043577
vt 0.991256 0.431002
vt 0.979754 0.167273
vt 0.741724 0.307243
vt 0.161122 0.328492
vt 0.500706 0.289288
vt 0.993260 0.448269
vt 0.012339 0.425516
vn 0.0000 -1.0000 0.0000
vn 0.0000 1.0000 0.0000
vn 0.8660 0.0000 -0.5000
vn 0.9659 0.0000 -0.2588
vn 0.0000 0.0000 -1.0000
vn 0.2588 0.0000 -0.9659
vn 0.2588 0.0000 0.9659
vn 0.0000 0.0000 1.0000
vn 0.9659 0.0000 0.2588
vn 0.8660 0.0000 0.5000
vn 0.7071 0.0000 -0.7071
vn 0.5000 0.0000 0.8660
vn 1.0000 0.0000 0.0000
vn 0.5000 0.0000 -0.8660
vn 0.7071 0.0000 0.7071
vn -0.9659 0.0000 -0.2588
vn -0.8660 0.0000 -0.5000
vn -0.2588 0.0000 -0.9659
vn -0.2588 0.0000 0.9659
vn -0.8660 0.0000 0.5000
vn -0.9659 0.0000 0.2588
vn -0.7071 0.0000 -0.7071
vn -0.5000 0.0000 0.8660
vn -1.0000 0.0000 0.0000
vn -0.5000 0.0000 -0.8660
vn -0.7071 0.0000 0.7071
s 1
f 23/1/1 51/2/1 52/3/1
f 23/1/1 53/4/1 51/2/1
f 23/1/1 54/5/1 53/4/1
f 23/1/1 55/6/1 54/5/1
f 23/1/1 56/7/1 55/6/1
f 23/1/1 57/8/1 56/7/1
f 23/1/1 58/9/1 57/8/1
f 23/1/1 59/10/1 58/9/1
f 23/1/1 60/11/1 59/10/1
f 23/1/1 61/12/1 60/11/1
f 23/1/1 62/13/1 61/12/1
f 23/1/1 63/14/1 62/13/1
f 37/15/2 65/16/2 64/17/2
f 37/15/2 64/17/2 66/18/2
f 37/15/2 66/18/2 67/19/2
f 37/15/2 67/19/2 68/20/2
f 37/15/2 68/20/2 69/21/2
f 37/15/2 69/21/2 70/22/2
f 37/15/2 70/22/2 71/23/2
f 37/15/2 71/23/2 72/24/2
f 37/15/2 72/24/2 73/25/2
f 37/15/2 73/25/2 74/26/2
f 37/15/2 74/26/2 75/27/2
f 37/15/2 75/27/2 76/28/2
f 8/29/3 18/30/4 7/31/4
f 24/32/5 22/33/6 11/34/6
f 1/35/7 39/36/8 25/37/8
f 5/38/9 15/39/10 4/40/10
f 9/41/11 19/42/3 8/29/3
f 2/43/12 12/44/7 1/35/7
f 6/45/13 16/46/9 5/38/9
f 10/47/14 20/48/11 9/41/11
f 3/49/15 13/50/12 2/43/12
f 7/31/4 17/51/13 6/52/13
f 11/34/6 21/53/14 10/47/14
f 4/40/10 14/54/15 3/49/15
f 23/1/1 52/3/1 77/55/1
f 23/1/1 77/55/1 78/56/1
f 23/1/1 78/56/1 79/57/1
f 23/1/1 79/57/1 80/58/1
f 23/1/1 80/58/1 81/59/1
f 23/1/1 81/59/1 82/60/1
f 23/1/1 82/60/1 83/61/1
f 23/1/1 83/61/1 84/62/1
f 23/1/1 84/62/1 85/63/1
f 23/1/1 85/63/1 86/64/1
f 23/1/1 86/64/1 87/65/1
f 23/1/1 87/65/1 63/14/1
f 37/15/2 88/66/2 65/16/2
f 37/15/2 89/67/2 88/66/2
f 37/15/2 90/68/2 89/67/2
f 37/15/2 91/69/2 90/68/2
f 37/15/2 92/70/2 91/69/2
f 37/15/2 93/71/2 92/70/2
f 37/15/2 94/72/2 93/71/2
f 37/15/2 95/73/2 94/72/2
f 37/15/2 96/74/2 95/73/2
f 37/15/2 97/75/2 96/74/2
f 37/15/2 98/76/2 97/75/2
f 37/15/2 76/28/2 98/76/2
f 46/77/16 33/78/17 32/79/16
f 50/80/18 24/32/5 36/81/18
f 39/36/8 26/82/19 25/37/8
f 43/83/20 30/84/21 29/85/20
f 47/86/17 34/87/22 33/78/17
f 40/88/19 27/89/23 26/82/19
f 44/90/21 31/91/24 30/84/21
f 48/92/22 35/93/25 34/87/22
f 41/94/23 28/95/26 27/89/23
f 45/96/24 32/79/16 31/97/24
f 49/98/25 36/81/18 35/93/25
f 42/99/26 29/85/20 28/95/26
f 8/29/3 19/42/3 18/30/4
f 24/32/5 38/100/5 22/33/6
f 1/35/7 12/44/7 39/36/8
f 5/38/9 16/46/9 15/39/10
f 9/41/11 20/48/11 19/42/3
f 2/43/12 13/50/12 12/44/7
f 6/45/13 17/101/13 16/46/9
f 10/47/14 21/53/14 20/48/11
f 3/49/15 14/54/15 13/50/12
f 7/31/4 18/30/4 17/51/13
f 11/34/6 22/33/6 21/53/14
f 4/40/10 15/39/10 14/54/15
f 46/77/16 47/86/17 33/78/17
f 50/80/18 38/100/5 24/32/5
f 39/36/8 40/88/19 26/82/19
f 43/83/20 44/90/21 30/84/21
f 47/86/17 48/92/22 34/87/22
f 40/88/19 41/94/23 27/89/23
f 44/90/21 45/102/24 31/91/24
f 48/92/22 49/98/25 35/93/25
f 41/94/23 42/99/26 28/95/26
f 45/96/24 46/77/16 32/79/16
f 49/98/25 50/80/18 36/81/18
f 42/99/26 43/83/20 29/85/20
